{"title":"The Connection","uid":7456379,"size":612986368,"categoryP":"video","categoryS":"movies","magnet":"?xt=urn:btih:58288509428fc93247b839c8f8b1f6c5f333bde3&amp;dn=The+Connection&amp;tr=udp%3A%2F%2Ftracker.openbittorrent.com%3A80&amp;tr=udp%3A%2F%2Fopen.demonii.com%3A1337&amp;tr=udp%3A%2F%2Ftracker.coppersurfer.tk%3A6969&amp;tr=udp%3A%2F%2Fexodus.desync.com%3A6969","seeders":2,"leechers":0,"uploader":"rubberaddict","files":-1,"time":1342675482,"description":"A director tries to film a group of junkies in Leach's room while they are waiting for Cowboy to bring their heroin connection.\n\n----------------------------------------------------------------------------------\nGeneral\nFormat                                   : AVI\nFormat/Info                              : Audio Video Interleave\nFile size                                : 585 MiB\nDuration                                 : 1h 42mn\nOverall bit rate                         : 799 Kbps\nWriting library                          : VirtualDub build 13720/release\n\nVideo\nID                                       : 0\nFormat                                   : MPEG-4 Visual\nFormat settings, BVOP                    : 1\nFormat settings, QPel                    : No\nFormat settings, GMC                     : No warppoints\nFormat settings, Matrix                  : Default (H.263)\nMuxing mode                              : Packed bitstream\nCodec ID                                 : DX50\nCodec ID/Hint                            : DivX 5\nDuration                                 : 1h 42mn\nSource duration                          : 1h 31mn\nBit rate                                 : 530 Kbps\nWidth                                    : 720 pixels\nHeight                                   : 544 pixels\nDisplay aspect ratio                     : 4:3\nFrame rate                               : 29.970 fps\nColor space                              : YUV\nChroma subsampling                       : 4:2:0\nBit depth                                : 8 bits\nScan type                                : Progressive\nCompression mode                         : Lossy\nBits/(Pixel*Frame)                       : 0.045\nStream size                              : 346 MiB (59%)\nWriting library                          : DivX 5.2.1 Beta (UTC 2004-09-08)\n\nAudio\nID                                       : 1\nFormat                                   : ADPCM\nCodec ID                                 : 2\nDuration                                 : 1h 42mn\nSource duration                          : 1h 31mn\nBit rate mode                            : Constant\nBit rate                                 : 352.8 Kbps\nChannel(s)                               : 2 channels\nSampling rate                            : 44.1 KHz\nBit depth                                : 4 bits\nStream size                              : 232 MiB (40%)\nInterleave, duration                     : 46 ms (1.38 video frame)\nInterleave, preload duration             : 461 ms\n----------------------------------------------------------------------------------\n\nENJOY!!! BE SEEING YOU!","torrent":{"xt":"urn:btih:58288509428fc93247b839c8f8b1f6c5f333bde3","amp;dn":"The+Connection","amp;tr":["udp%3A%2F%2Ftracker.openbittorrent.com%3A80","udp%3A%2F%2Fopen.demonii.com%3A1337","udp%3A%2F%2Ftracker.coppersurfer.tk%3A6969","udp%3A%2F%2Fexodus.desync.com%3A6969"],"infoHash":"58288509428fc93247b839c8f8b1f6c5f333bde3","infoHashBuffer":{"type":"Buffer","data":[88,40,133,9,66,143,201,50,71,184,57,200,248,177,246,197,243,51,189,227]},"announce":[],"urlList":[]}}